<svg width="748" height="502" viewBox="0 0 748 502" fill="none" xmlns="http://www.w3.org/2000/svg" xmlns:xlink="http://www.w3.org/1999/xlink">
<rect width="748" height="502" rx="36" fill="white"/>
<rect width="748" height="502" rx="36" fill="url(#pattern0_441_6487)"/>
<defs>
<pattern id="pattern0_441_6487" patternUnits="userSpaceOnUse" patternTransform="matrix(225.456 0 0 268.4 271.52 190)" preserveAspectRatio="none" viewBox="0 0 184.8 220" width="1" height="1">
<use xlink:href="#pattern0_441_6487_inner" transform="translate(-184.8 0)"/>
<g id="pattern0_441_6487_inner">
<rect x="0.5" y="0.5" width="167" height="99" rx="15.5" fill="#F7FAFC"/>
<rect x="0.5" y="0.5" width="167" height="99" rx="15.5" stroke="#E0EFFB"/>
<path d="M26.1904 17.5335C26.3255 17.4122 26.4966 17.3419 26.6757 17.3342C26.8547 17.3265 27.031 17.3819 27.1754 17.4913C27.3198 17.6007 27.4237 17.7575 27.4701 17.9359C27.5164 18.1143 27.5024 18.3036 27.4304 18.4727L25.8558 22.1815H28.3023C29.2566 22.1815 29.697 23.4031 28.9744 24.0448L21.7136 30.4954C21.5984 30.599 21.4525 30.6592 21.2997 30.6662C21.1469 30.6731 20.9964 30.6264 20.8728 30.5337C20.7491 30.441 20.6597 30.3077 20.6191 30.1558C20.5785 30.0039 20.5892 29.8422 20.6494 29.6974L22.2393 25.8171H19.6981C18.7462 25.8171 18.3046 24.6004 19.0231 23.9569L26.1904 17.5341V17.5335ZM26.4561 18.5L19.6017 24.6422C19.579 24.6624 19.5629 24.6893 19.5554 24.7193C19.548 24.7492 19.5497 24.7808 19.5602 24.8097C19.5707 24.8387 19.5895 24.8636 19.6142 24.8812C19.6388 24.8988 19.6681 24.9082 19.6981 24.9082H22.9025C22.9753 24.9081 23.0469 24.9266 23.1111 24.962C23.1752 24.9974 23.2299 25.0486 23.2702 25.1111C23.3104 25.1735 23.3351 25.2453 23.3419 25.3199C23.3488 25.3946 23.3376 25.4698 23.3094 25.539L21.8048 29.2145L28.3988 23.3564C28.4214 23.3362 28.4376 23.3093 28.445 23.2794C28.4524 23.2494 28.4507 23.2178 28.4402 23.1889C28.4297 23.1599 28.4109 23.135 28.3863 23.1174C28.3616 23.0998 28.3323 23.0904 28.3023 23.0904H25.1814C25.1082 23.0904 25.0362 23.0716 24.9718 23.0357C24.9074 22.9998 24.8527 22.9479 24.8126 22.8848C24.7726 22.8217 24.7484 22.7493 24.7422 22.6741C24.7361 22.5989 24.7482 22.5234 24.7775 22.4542L26.4561 18.5Z" fill="black"/>
<path d="M36.2723 21.404V20.324H42.6683V21.404H40.0643V29H38.8883V21.404H36.2723ZM42.0854 26.06C42.0854 24.248 43.3814 22.976 45.1454 22.976C46.8974 22.976 48.1934 24.248 48.1934 26.06C48.1934 27.872 46.8974 29.144 45.1454 29.144C43.3814 29.144 42.0854 27.872 42.0854 26.06ZM43.2254 26.06C43.2254 27.284 44.0054 28.136 45.1454 28.136C46.2734 28.136 47.0654 27.284 47.0654 26.06C47.0654 24.836 46.2734 23.984 45.1454 23.984C44.0054 23.984 43.2254 24.836 43.2254 26.06ZM50.354 29H49.226V20.168H50.354V25.892L52.958 23.132H54.374L52.13 25.472L54.362 29H53.066L51.35 26.288L50.354 27.332V29ZM57.3651 29.144C55.6371 29.144 54.4491 27.896 54.4491 26.072C54.4491 24.236 55.6131 22.964 57.3171 22.964C58.9851 22.964 60.0771 24.116 60.0771 25.856V26.276L55.5411 26.288C55.6251 27.524 56.2731 28.208 57.3891 28.208C58.2651 28.208 58.8411 27.848 59.0331 27.176H60.0891C59.8011 28.436 58.8171 29.144 57.3651 29.144ZM57.3171 23.912C56.3331 23.912 55.7091 24.5 55.5651 25.532H58.9491C58.9491 24.56 58.3131 23.912 57.3171 23.912ZM62.225 29H61.097V23.132H62.117L62.237 24.032C62.609 23.36 63.353 22.964 64.181 22.964C65.729 22.964 66.437 23.912 66.437 25.412V29H65.309V25.664C65.309 24.476 64.757 23.996 63.893 23.996C62.837 23.996 62.225 24.752 62.225 25.892V29ZM67.209 27.296H68.289C68.289 27.896 68.745 28.256 69.489 28.256C70.281 28.256 70.737 27.932 70.737 27.392C70.737 26.996 70.545 26.756 69.933 26.6L68.901 26.36C67.857 26.108 67.365 25.592 67.365 24.728C67.365 23.648 68.277 22.964 69.573 22.964C70.857 22.964 71.697 23.684 71.721 24.8H70.641C70.617 24.212 70.221 23.84 69.537 23.84C68.829 23.84 68.433 24.152 68.433 24.692C68.433 25.088 68.721 25.352 69.297 25.496L70.329 25.748C71.325 25.988 71.817 26.444 71.817 27.32C71.817 28.436 70.857 29.144 69.465 29.144C68.085 29.144 67.209 28.412 67.209 27.296ZM76.0012 25.916V20.324H77.1772V25.844C77.1772 27.236 77.9452 28.004 79.3252 28.004C80.6932 28.004 81.4492 27.224 81.4492 25.844V20.324H82.6372V25.916C82.6372 27.908 81.3652 29.144 79.3252 29.144C77.2732 29.144 76.0012 27.92 76.0012 25.916ZM83.6336 27.296H84.7136C84.7136 27.896 85.1696 28.256 85.9136 28.256C86.7056 28.256 87.1616 27.932 87.1616 27.392C87.1616 26.996 86.9696 26.756 86.3576 26.6L85.3256 26.36C84.2816 26.108 83.7896 25.592 83.7896 24.728C83.7896 23.648 84.7016 22.964 85.9976 22.964C87.2816 22.964 88.1216 23.684 88.1456 24.8H87.0656C87.0416 24.212 86.6456 23.84 85.9616 23.84C85.2536 23.84 84.8576 24.152 84.8576 24.692C84.8576 25.088 85.1456 25.352 85.7216 25.496L86.7536 25.748C87.7496 25.988 88.2416 26.444 88.2416 27.32C88.2416 28.436 87.2816 29.144 85.8896 29.144C84.5096 29.144 83.6336 28.412 83.6336 27.296ZM91.7845 29.144C90.0565 29.144 88.8685 27.896 88.8685 26.072C88.8685 24.236 90.0325 22.964 91.7365 22.964C93.4045 22.964 94.4965 24.116 94.4965 25.856V26.276L89.9605 26.288C90.0445 27.524 90.6925 28.208 91.8085 28.208C92.6845 28.208 93.2605 27.848 93.4525 27.176H94.5085C94.2205 28.436 93.2365 29.144 91.7845 29.144ZM91.7365 23.912C90.7525 23.912 90.1285 24.5 89.9845 25.532H93.3685C93.3685 24.56 92.7325 23.912 91.7365 23.912ZM97.8684 29.144C96.1644 29.144 95.1324 27.872 95.1324 26.084C95.1324 24.284 96.1764 22.964 97.9164 22.964C98.8164 22.964 99.5724 23.36 99.9684 24.08V20.168H101.084V29H100.076L99.9804 27.932C99.5964 28.736 98.8044 29.144 97.8684 29.144ZM98.0964 28.124C99.2484 28.124 99.9564 27.272 99.9564 26.048C99.9564 24.848 99.2484 23.984 98.0964 23.984C96.9444 23.984 96.2724 24.848 96.2724 26.048C96.2724 27.26 96.9444 28.124 98.0964 28.124Z" fill="black"/>
<path d="M21.6992 63.22H17.4432V60.756H24.3312V81H21.6992V63.22ZM33.049 81.336C28.905 81.336 26.217 78.704 26.217 74.672H28.933C28.933 77.276 30.529 78.872 33.105 78.872C35.849 78.872 37.613 77.052 37.613 74.308C37.613 71.704 35.961 69.772 33.133 69.772C31.425 69.772 29.857 70.584 28.933 71.732L26.609 71.144L29.073 60.756H39.209V63.276H31.061L29.717 68.652C30.781 67.84 32.125 67.42 33.637 67.42C37.753 67.42 40.413 70.304 40.413 74.196C40.413 78.396 37.417 81.336 33.049 81.336ZM56.2 76.912H53.792V81H51.16V76.912H40.688V74.476L50.236 60.756H53.792V74.476H56.2V76.912ZM43.656 74.476H51.16V63.668L43.656 74.476Z" fill="#0D8AF2"/>
</g>
<use xlink:href="#pattern0_441_6487_inner" transform="translate(-92.4 110)"/>
<use xlink:href="#pattern0_441_6487_inner" transform="translate(92.4 110)"/>
</pattern></defs>
</svg>
