<svg width="328" height="141" viewBox="0 0 328 141" fill="none" xmlns="http://www.w3.org/2000/svg">
<path d="M129.73 3.85602C136.718 -1.99397 147.138 -1.08541 153.001 5.88629C156.806 10.4095 157.758 16.3732 156.049 21.6019C154.998 24.8165 154.914 28.566 157.144 31.1121L159.633 33.9545C161.993 36.6489 165.985 37.065 169.226 35.5332C169.785 35.2692 170.351 35.0186 170.924 34.7818C177.761 31.9566 185.284 31.2177 192.542 32.6579C196.465 33.4365 200.215 34.8335 203.66 36.7772C205.904 38.0436 208.767 37.8663 210.595 36.0515C212.441 34.2183 212.493 31.3022 211.956 28.7594C211.318 25.7339 212.029 22.4573 214.176 19.9048C217.887 15.4925 224.48 14.9172 228.903 18.6195C233.326 22.3218 233.902 28.8996 230.191 33.3118C228.064 35.8409 224.99 37.1079 221.921 37.0318C219.677 36.9761 217.286 37.3198 215.696 38.9003L211.699 42.8711C211.698 42.8707 211.698 42.8714 211.699 42.8711C211.699 42.8714 211.699 42.8732 211.699 42.8736L207.227 47.3347C204.757 49.7989 200.777 49.7114 197.763 47.9496C195.393 46.5644 192.797 45.5745 190.074 45.0342C185.27 44.0809 180.29 44.5706 175.765 46.4406C171.239 48.3107 167.37 51.478 164.649 55.5413C161.928 59.6043 160.475 64.3812 160.475 69.2677C160.475 74.1545 161.928 78.9323 164.649 82.9955C167.37 87.0588 171.239 90.226 175.765 92.0962C180.29 93.9661 185.27 94.4558 190.074 93.5025C192.797 92.9622 195.394 91.9721 197.764 90.5866C200.777 88.8249 204.757 88.7374 207.227 91.201C209.697 93.665 209.721 97.7126 206.871 99.7271C202.6 102.746 197.722 104.851 192.542 105.879C188.788 106.624 184.962 106.785 181.198 106.376C178.071 106.036 174.921 107.632 173.855 110.585C172.912 113.193 173.997 116.038 175.636 118.277C178.246 121.843 179.085 126.599 177.457 131.059C174.862 138.174 166.976 141.842 159.845 139.253C152.713 136.663 149.035 128.797 151.631 121.682C153.393 116.852 157.593 113.612 162.34 112.839C165.031 112.401 167.726 111.012 168.65 108.452C169.647 105.693 168.291 102.672 165.78 101.147C161.151 98.3343 157.169 94.5399 154.132 90.006C150.021 83.8675 147.826 76.6504 147.826 69.2677C147.826 67.0713 146.28 65.1033 144.094 64.8421L139.968 64.3491C138.426 64.1648 137.326 62.7686 137.511 61.2306C137.696 59.6928 139.095 58.5956 140.636 58.7797L143.835 59.1619C146.826 59.5192 149.574 57.5956 150.74 54.8249C151.662 52.6334 152.796 50.5245 154.132 48.5295C154.415 48.1079 154.705 47.6926 155.004 47.2839C157.218 44.2524 157.479 40.0182 155.005 37.1937L153.042 34.9528C150.772 32.3611 146.949 31.9766 143.565 32.6441C137.848 33.7717 131.706 31.84 127.695 27.0713C121.831 20.0997 122.742 9.70611 129.73 3.85602Z" fill="#222222"/>
<path d="M10.784 75.168C10.784 78.1389 8.36992 80.5473 5.392 80.5473C2.41408 80.5473 0 78.1389 0 75.168V24.4849C0 21.514 2.41408 19.1056 5.392 19.1056C8.36992 19.1056 10.784 21.514 10.784 24.4849V44.4892H38.081V24.4849C38.081 21.514 40.4951 19.1056 43.473 19.1056C46.4509 19.1056 48.865 21.514 48.865 24.4849V75.168C48.865 78.1389 46.4509 80.5473 43.473 80.5473C40.4951 80.5473 38.081 78.1389 38.081 75.168V54.4913H10.784V75.168Z" fill="#222222"/>
<path d="M83.1462 44.153C83.1462 41.3213 85.4472 39.0258 88.2855 39.0258C91.1238 39.0258 93.4248 41.3213 93.4248 44.153V75.4761C93.4248 78.2768 91.1489 80.5473 88.3416 80.5473C85.7996 80.5473 83.6484 78.674 83.305 76.1613L83.1462 74.9999C80.6187 78.9503 75.2267 81.64 69.6662 81.64C60.0617 81.64 54.417 75.168 54.417 64.9978V44.153C54.417 41.3213 56.7179 39.0258 59.5562 39.0258C62.3946 39.0258 64.6955 41.3213 64.6955 44.1529V61.3835C64.6955 69.2844 67.8127 72.4783 73.5417 72.4783C80.029 72.4783 83.1462 68.696 83.1462 60.7952V44.153Z" fill="#222222"/>
<path d="M108.973 76.0685C108.708 78.6136 106.557 80.5473 103.993 80.5473C101.227 80.5473 98.9859 78.311 98.9859 75.5524V23.14C98.9859 20.3084 101.287 18.0129 104.125 18.0129C106.963 18.0129 109.264 20.3084 109.264 23.14V45.0775C111.96 40.4547 117.521 37.681 123.84 37.681C135.719 37.681 142.964 46.9267 142.964 60.0387C142.964 72.8146 135.129 81.64 123.166 81.64C116.931 81.64 111.623 78.8663 109.18 74.0753L108.973 76.0685ZM109.349 59.6185C109.349 67.099 113.982 72.2262 121.059 72.2262C128.305 72.2262 132.602 67.015 132.602 59.6185C132.602 52.2219 128.305 46.9267 121.059 46.9267C113.982 46.9267 109.349 52.1379 109.349 59.6185Z" fill="#222222"/>
<path d="M223.542 98.2267C223.542 101.035 221.26 103.312 218.445 103.312C215.63 103.312 213.348 101.035 213.348 98.2269L213.347 50.2175C213.347 47.409 215.629 45.1323 218.444 45.1323C221.259 45.1323 223.541 47.4089 223.541 50.2173L223.542 98.2267Z" fill="#222222"/>
<path d="M241.654 104.405C232.807 104.405 227.415 99.2774 227.415 91.4606C227.415 83.8119 232.976 79.021 242.833 78.2645L254.378 77.4085C254.899 77.3699 255.302 76.9368 255.302 76.4154C255.302 70.784 251.932 68.5146 246.709 68.5146C242.891 68.5146 240.141 69.5134 238.627 71.3434C237.087 73.2051 235.311 75.4068 232.892 75.4068C230.472 75.4068 228.427 73.4031 229.138 71.0961C231.148 64.5799 237.847 60.5297 247.214 60.5297C258.419 60.5297 265.328 66.5814 265.328 78.0964V98.539C265.328 101.175 263.186 103.312 260.544 103.312C258.128 103.312 256.091 101.515 255.796 99.123L255.555 97.1761C253.786 101.463 248.141 104.405 241.654 104.405ZM245.024 96.6718C251.342 96.6718 255.386 92.8895 255.386 86.5016C255.386 85.3231 254.38 84.3942 253.203 84.4855L246.709 84.9887C240.306 85.577 237.862 87.6783 237.862 91.0404C237.862 94.8227 240.39 96.6718 245.024 96.6718Z" fill="#222222"/>
<path d="M283.325 103.312C280.341 103.312 277.697 101.394 276.777 98.5613L266.984 68.3946C265.925 65.1335 268.362 61.7904 271.798 61.7904C274.021 61.7904 275.984 63.2383 276.636 65.3591L281.016 79.6094C281.942 82.8874 282.785 86.5016 283.543 90.368C284.301 86.3335 285.06 83.7279 286.408 79.6094L290.572 66.6554C291.504 63.7567 294.206 61.7904 297.258 61.7904H297.416C300.49 61.7904 303.206 63.785 304.12 66.7127L308.144 79.6094C308.65 81.2904 310.335 87.5102 310.84 90.2839C311.514 87.174 312.862 82.215 313.62 79.6094L318.07 65.3504C318.731 63.2329 320.695 61.7904 322.918 61.7904C326.409 61.7904 328.858 65.2226 327.717 68.5132L317.192 98.8456C316.265 101.519 313.74 103.312 310.905 103.312C308.007 103.312 305.442 101.44 304.564 98.6845L300.309 85.3249C298.624 79.8615 297.697 75.9111 297.36 73.8098C296.939 75.743 296.181 78.6848 294.074 85.493L289.879 98.5428C288.965 101.384 286.316 103.312 283.325 103.312Z" fill="#222222"/>
</svg>
