<svg width="496" height="239" viewBox="0 0 496 239" fill="none" xmlns="http://www.w3.org/2000/svg" xmlns:xlink="http://www.w3.org/1999/xlink">
<g clip-path="url(#clip0_535_8122)">
<rect width="496" height="239" fill="white"/>
<rect width="496" height="239" fill="url(#pattern0_535_8122)" fill-opacity="0.2"/>
<rect width="496" height="239" fill="url(#paint0_linear_535_8122)"/>
<rect x="40.9023" y="60.9023" width="923.91" height="118.195" rx="59.0977" fill="white"/>
<rect x="40.9023" y="60.9023" width="923.91" height="118.195" rx="59.0977" stroke="#D3D3D3" stroke-width="1.80451"/>
<path d="M97.5596 123.482L117.578 103.463C118.616 102.403 119.853 101.56 121.219 100.982C122.585 100.403 124.051 100.102 125.534 100.094C127.017 100.086 128.487 100.372 129.859 100.936C131.231 101.5 132.477 102.331 133.525 103.379C134.574 104.428 135.404 105.674 135.968 107.046C136.532 108.418 136.819 109.887 136.811 111.37C136.803 112.854 136.501 114.32 135.923 115.686C135.345 117.052 134.501 118.289 133.442 119.327L114.743 138.021C113.585 139.142 112.032 139.762 110.421 139.749C108.809 139.736 107.267 139.09 106.127 137.95C104.987 136.81 104.341 135.268 104.328 133.656C104.314 132.045 104.935 130.492 106.056 129.334L123.996 111.392" stroke="#808080" stroke-width="3.21429" stroke-linecap="round" stroke-linejoin="round"/>
<path d="M190.308 133.877C183.245 133.877 178.548 128.803 178.548 121.123C178.548 113.477 183.383 108.3 190.48 108.3C196.068 108.3 200.354 111.626 201.28 116.7H197.68C196.754 113.477 193.977 111.523 190.377 111.523C185.371 111.523 182.08 115.294 182.08 121.089C182.08 126.883 185.371 130.654 190.377 130.654C194.011 130.654 196.891 128.7 197.817 125.649H201.383C200.32 130.586 195.897 133.877 190.308 133.877ZM213.182 116.597V119.546H211.742C208.691 119.546 206.805 121.397 206.805 124.62V133.5H203.582V116.769H206.6L206.805 119.306C207.491 117.557 209.171 116.391 211.468 116.391C212.051 116.391 212.531 116.46 213.182 116.597ZM221.465 133.911C216.528 133.911 213.134 130.346 213.134 125.134C213.134 119.889 216.46 116.254 221.328 116.254C226.094 116.254 229.214 119.546 229.214 124.517V125.717L216.254 125.751C216.494 129.283 218.345 131.237 221.534 131.237C224.037 131.237 225.683 130.209 226.231 128.289H229.248C228.425 131.889 225.614 133.911 221.465 133.911ZM221.328 118.963C218.517 118.963 216.734 120.643 216.323 123.591H225.991C225.991 120.814 224.174 118.963 221.328 118.963ZM236.178 133.911C232.578 133.911 230.452 131.889 230.452 128.837C230.452 125.751 232.749 123.831 236.692 123.523L241.972 123.111V122.631C241.972 119.82 240.292 118.826 238.029 118.826C235.321 118.826 233.778 120.026 233.778 122.049H230.966C230.966 118.551 233.846 116.254 238.166 116.254C242.315 116.254 245.126 118.449 245.126 122.974V133.5H242.383L242.041 130.791C241.183 132.711 238.886 133.911 236.178 133.911ZM237.103 131.409C240.155 131.409 242.006 129.42 242.006 126.266V125.374L237.721 125.717C234.875 125.991 233.709 127.089 233.709 128.734C233.709 130.517 235.012 131.409 237.103 131.409ZM252.682 133.5H249.459V119.443H246.167V116.734H249.459V111.489H252.682V116.734H255.973V119.443H252.682V133.5ZM264.561 133.911C259.624 133.911 256.23 130.346 256.23 125.134C256.23 119.889 259.555 116.254 264.424 116.254C269.19 116.254 272.31 119.546 272.31 124.517V125.717L259.35 125.751C259.59 129.283 261.441 131.237 264.63 131.237C267.132 131.237 268.778 130.209 269.327 128.289H272.344C271.521 131.889 268.71 133.911 264.561 133.911ZM264.424 118.963C261.612 118.963 259.83 120.643 259.418 123.591H269.087C269.087 120.814 267.27 118.963 264.424 118.963ZM285.764 133.5H282.541V116.734H285.421L285.73 118.929C286.587 117.351 288.37 116.254 290.736 116.254C293.341 116.254 295.193 117.557 296.05 119.649C296.839 117.557 298.861 116.254 301.467 116.254C305.307 116.254 307.639 118.654 307.639 122.529V133.5H304.484V123.317C304.484 120.677 303.01 119.169 300.747 119.169C298.313 119.169 296.701 120.883 296.701 123.557V133.5H293.513V123.283C293.513 120.643 292.073 119.203 289.81 119.203C287.376 119.203 285.764 120.883 285.764 123.557V133.5ZM317.969 133.911C313.032 133.911 309.638 130.346 309.638 125.134C309.638 119.889 312.963 116.254 317.832 116.254C322.598 116.254 325.718 119.546 325.718 124.517V125.717L312.758 125.751C312.998 129.283 314.849 131.237 318.038 131.237C320.54 131.237 322.186 130.209 322.735 128.289H325.752C324.929 131.889 322.118 133.911 317.969 133.911ZM317.832 118.963C315.02 118.963 313.238 120.643 312.826 123.591H322.495C322.495 120.814 320.678 118.963 317.832 118.963ZM335.949 141.009V116.734H338.864L339.104 119.751C340.235 117.454 342.498 116.254 345.172 116.254C349.972 116.254 352.955 119.854 352.955 124.997C352.955 130.106 350.144 133.946 345.172 133.946C342.498 133.946 340.269 132.814 339.172 130.757V141.009H335.949ZM339.207 125.134C339.207 128.563 341.195 131.031 344.487 131.031C347.778 131.031 349.732 128.563 349.732 125.134C349.732 121.671 347.778 119.203 344.487 119.203C341.195 119.203 339.207 121.637 339.207 125.134ZM358.427 133.5H355.205V108.266H358.427V133.5ZM366.703 133.911C363.103 133.911 360.977 131.889 360.977 128.837C360.977 125.751 363.275 123.831 367.217 123.523L372.497 123.111V122.631C372.497 119.82 370.817 118.826 368.555 118.826C365.846 118.826 364.303 120.026 364.303 122.049H361.492C361.492 118.551 364.372 116.254 368.692 116.254C372.84 116.254 375.652 118.449 375.652 122.974V133.5H372.909L372.566 130.791C371.709 132.711 369.412 133.911 366.703 133.911ZM367.629 131.409C370.68 131.409 372.532 129.42 372.532 126.266V125.374L368.246 125.717C365.4 125.991 364.235 127.089 364.235 128.734C364.235 130.517 365.537 131.409 367.629 131.409ZM381.967 133.5H378.744V116.734H381.658L382.001 119.306C383.064 117.386 385.189 116.254 387.555 116.254C391.978 116.254 394.001 118.963 394.001 123.249V133.5H390.778V123.969C390.778 120.574 389.201 119.203 386.732 119.203C383.715 119.203 381.967 121.363 381.967 124.62V133.5ZM403.314 116.734H405.782V114.06C405.782 109.946 408.045 108.266 411.097 108.266C411.714 108.266 412.434 108.3 413.085 108.403V111.18H411.645C409.554 111.18 409.005 112.243 409.005 114.06V116.734H412.982V119.443H409.005V133.5H405.782V119.443H403.314V116.734ZM413.008 125.1C413.008 119.923 416.711 116.289 421.751 116.289C426.756 116.289 430.459 119.923 430.459 125.1C430.459 130.277 426.756 133.911 421.751 133.911C416.711 133.911 413.008 130.277 413.008 125.1ZM416.265 125.1C416.265 128.597 418.493 131.031 421.751 131.031C424.973 131.031 427.236 128.597 427.236 125.1C427.236 121.603 424.973 119.169 421.751 119.169C418.493 119.169 416.265 121.603 416.265 125.1ZM442.255 116.597V119.546H440.815C437.764 119.546 435.878 121.397 435.878 124.62V133.5H432.655V116.769H435.672L435.878 119.306C436.564 117.557 438.244 116.391 440.541 116.391C441.124 116.391 441.604 116.46 442.255 116.597ZM458.63 133.911C453.762 133.911 450.813 130.277 450.813 125.169C450.813 120.026 453.796 116.254 458.767 116.254C461.339 116.254 463.499 117.386 464.63 119.443V108.266H467.819V133.5H464.939L464.664 130.449C463.567 132.746 461.304 133.911 458.63 133.911ZM459.282 130.997C462.573 130.997 464.596 128.563 464.596 125.066C464.596 121.637 462.573 119.169 459.282 119.169C455.99 119.169 454.07 121.637 454.07 125.066C454.07 128.529 455.99 130.997 459.282 130.997ZM476 133.911C472.4 133.911 470.274 131.889 470.274 128.837C470.274 125.751 472.571 123.831 476.514 123.523L481.794 123.111V122.631C481.794 119.82 480.114 118.826 477.851 118.826C475.142 118.826 473.6 120.026 473.6 122.049H470.788C470.788 118.551 473.668 116.254 477.988 116.254C482.137 116.254 484.948 118.449 484.948 122.974V133.5H482.205L481.862 130.791C481.005 132.711 478.708 133.911 476 133.911ZM476.925 131.409C479.977 131.409 481.828 129.42 481.828 126.266V125.374L477.542 125.717C474.697 125.991 473.531 127.089 473.531 128.734C473.531 130.517 474.834 131.409 476.925 131.409ZM486.027 141.009V138.369H488.187C489.73 138.369 490.964 138.129 491.753 136.003L492.335 134.391L485.581 116.734H488.975L493.844 130.243L498.815 116.734H502.141L494.221 137.271C493.09 140.151 491.41 141.351 488.838 141.351C487.775 141.351 486.884 141.214 486.027 141.009Z" fill="black"/>
</g>
<defs>
<linearGradient id="paint0_linear_535_8122" x1="248" y1="0" x2="248" y2="239" gradientUnits="userSpaceOnUse">
<stop offset="0.399038" stop-color="white" stop-opacity="0"/>
<stop offset="1" stop-color="white" stop-opacity="0.7"/>
</linearGradient>
<clipPath id="clip0_535_8122">
<rect width="496" height="239" fill="white"/>
</clipPath>
<pattern id="pattern0_535_8122" patternUnits="userSpaceOnUse" patternTransform="matrix(35.624 0 0 35.624 0 0)" preserveAspectRatio="none" viewBox="0 0 48.8 48.8" width="1" height="1">
<g id="pattern0_535_8122_inner">
<rect x="7" width="2" height="16" rx="1" fill="#A8A8A8"/>
<rect x="16" y="7" width="2" height="16" rx="1" transform="rotate(90 16 7)" fill="#A8A8A8"/>
</g>
</pattern></defs>
</svg>
