<svg width="496" height="220" viewBox="0 0 496 220" fill="none" xmlns="http://www.w3.org/2000/svg" xmlns:xlink="http://www.w3.org/1999/xlink">
<rect width="496" height="220" fill="white"/>
<rect width="496" height="220" fill="url(#pattern0_535_7995)" fill-opacity="0.2"/>
<rect width="496" height="220" fill="url(#paint0_linear_535_7995)"/>
<circle cx="248" cy="110" r="77" stroke="#B3B3B3" stroke-dasharray="3 3"/>
<g filter="url(#filter0_dddd_535_7995)">
<rect x="216" y="78" width="64" height="64" rx="32" fill="#0D121C"/>
<rect x="217" y="79" width="62" height="62" rx="31" stroke="url(#paint1_linear_535_7995)" stroke-width="2"/>
<path fill-rule="evenodd" clip-rule="evenodd" d="M233.88 91.1008C235.871 89.4306 238.838 89.6903 240.509 91.6808C241.593 92.9724 241.863 94.6749 241.377 96.1677C241.077 97.0855 241.053 98.1561 241.688 98.883L242.398 99.6955C243.071 100.465 244.208 100.584 245.131 100.146C245.29 100.071 245.451 99.9994 245.614 99.9318C246.164 99.7043 246.729 99.5247 247.303 99.393C248.187 99.1902 248.892 98.4513 248.892 97.5441C248.892 96.8494 248.412 96.2549 248.014 95.6851C247.784 95.3544 247.649 94.9525 247.649 94.5187C247.649 93.3901 248.564 92.475 249.692 92.4748C250.821 92.4748 251.736 93.3899 251.736 94.5187C251.736 94.9527 251.601 95.3548 251.37 95.6854C250.973 96.255 250.493 96.8493 250.493 97.5439V97.8597C250.493 98.5883 251.058 99.1832 251.773 99.3254C252.89 99.5476 253.957 99.9465 254.938 100.501C255.578 100.863 256.394 100.813 256.916 100.294C257.442 99.7696 257.457 98.9363 257.304 98.2095C257.122 97.3464 257.324 96.4121 257.936 95.6838C258.993 94.424 260.871 94.2595 262.131 95.3166C263.391 96.3737 263.555 98.2521 262.498 99.5119C261.892 100.234 261.017 100.595 260.142 100.573C259.503 100.557 258.822 100.656 258.368 101.107L257.229 102.241C257.229 102.241 257.229 102.242 257.229 102.242C257.229 102.242 257.229 102.243 257.229 102.243L255.956 103.516C255.252 104.22 254.118 104.195 253.26 103.692C252.585 103.296 251.845 103.014 251.069 102.86C249.701 102.587 248.282 102.727 246.993 103.261C245.704 103.795 244.602 104.699 243.827 105.86C243.052 107.02 242.638 108.384 242.638 109.779C242.638 111.175 243.052 112.538 243.827 113.698C244.602 114.859 245.704 115.763 246.993 116.297C248.282 116.831 249.701 116.971 251.069 116.698C251.845 116.544 252.585 116.262 253.26 115.866C254.118 115.363 255.252 115.338 255.956 116.042C256.659 116.745 256.666 117.901 255.854 118.476C255.752 118.548 255.648 118.618 255.544 118.687C254.776 119.19 254.356 120.129 254.653 120.997C254.906 121.74 255.654 122.177 256.356 122.529C256.943 122.823 257.423 123.333 257.665 123.998C258.168 125.381 257.456 126.91 256.073 127.413C254.691 127.917 253.161 127.204 252.657 125.821C252.399 125.112 252.461 124.364 252.77 123.736C253.1 123.062 253.402 122.294 253.159 121.584L252.912 120.857C252.753 120.39 252.256 120.136 251.773 120.233C250.703 120.445 249.614 120.491 248.541 120.374C247.65 120.277 246.752 120.733 246.449 121.576C246.18 122.321 246.489 123.134 246.957 123.773C247.7 124.791 247.939 126.149 247.476 127.423C246.736 129.454 244.49 130.502 242.459 129.763C240.427 129.023 239.38 126.777 240.119 124.745C240.621 123.367 241.816 122.442 243.168 122.22C243.935 122.095 244.702 121.698 244.966 120.967C245.25 120.178 244.864 119.315 244.148 118.879C243.426 118.44 242.76 117.916 242.163 117.32C241.444 116.603 240.333 116.345 239.456 116.858C238.823 117.229 238.518 117.973 238.15 118.608C237.977 118.908 237.725 119.167 237.403 119.353C236.421 119.919 235.166 119.583 234.599 118.601C234.032 117.619 234.369 116.363 235.351 115.796C235.746 115.568 236.185 115.486 236.606 115.534C237.338 115.618 238.145 115.77 238.781 115.398C239.566 114.938 239.843 113.95 239.561 113.086C239.214 112.024 239.034 110.909 239.034 109.779C239.034 109.152 238.594 108.59 237.971 108.515L237.177 108.42C236.331 108.319 235.551 108.836 234.886 109.369C234.223 109.9 233.344 110.153 232.441 109.994C230.778 109.701 229.667 108.114 229.96 106.45C230.253 104.786 231.84 103.675 233.504 103.968C234.32 104.112 235.003 104.567 235.452 105.19C235.999 105.948 236.676 106.747 237.605 106.858L237.654 106.864C238.646 106.983 239.554 106.342 239.962 105.43C240.206 104.885 240.496 104.359 240.831 103.858C240.912 103.737 240.995 103.618 241.08 103.502C241.71 102.636 241.784 101.427 241.08 100.62L240.52 99.9795C239.873 99.2392 238.784 99.1294 237.82 99.3202C236.192 99.6424 234.442 99.0914 233.3 97.7297C231.63 95.739 231.889 92.7711 233.88 91.1008Z" fill="white"/>
</g>
<rect x="234.332" y="21.4341" width="27" height="27" rx="13.5" fill="white"/>
<rect x="234.332" y="21.4341" width="27" height="27" rx="13.5" stroke="#B3B3B3" stroke-dasharray="2 2"/>
<g clip-path="url(#clip0_535_7995)">
<path d="M245.936 37.9697L252.513 31.1746C252.668 31.0143 252.849 30.9341 253.056 30.9341C253.263 30.9341 253.444 31.0143 253.599 31.1746C253.754 31.335 253.832 31.5255 253.832 31.7463C253.832 31.967 253.754 32.1573 253.599 32.3172L246.479 39.6935C246.324 39.8539 246.143 39.9341 245.936 39.9341C245.729 39.9341 245.548 39.8539 245.393 39.6935L242.056 36.2459C241.901 36.0855 241.826 35.8952 241.832 35.675C241.839 35.4548 241.92 35.2642 242.075 35.1033C242.231 34.9425 242.415 34.8623 242.629 34.8628C242.842 34.8633 243.026 34.9435 243.181 35.1033L245.936 37.9697Z" fill="#16A34A"/>
</g>
<rect x="274.881" y="33.3403" width="27" height="27" rx="13.5" fill="white"/>
<rect x="274.881" y="33.3403" width="27" height="27" rx="13.5" stroke="#B3B3B3" stroke-dasharray="2 2"/>
<g clip-path="url(#clip1_535_7995)">
<path d="M286.485 49.876L293.062 43.0809C293.217 42.9205 293.398 42.8403 293.605 42.8403C293.812 42.8403 293.993 42.9205 294.148 43.0809C294.303 43.2412 294.381 43.4318 294.381 43.6525C294.381 43.8733 294.303 44.0636 294.148 44.2234L287.028 51.5998C286.873 51.7602 286.692 51.8403 286.485 51.8403C286.278 51.8403 286.097 51.7602 285.942 51.5998L282.605 48.1521C282.45 47.9918 282.375 47.8015 282.381 47.5813C282.387 47.361 282.468 47.1705 282.624 47.0096C282.78 46.8487 282.964 46.7685 283.177 46.7691C283.391 46.7696 283.575 46.8498 283.73 47.0096L286.485 49.876Z" fill="#16A34A"/>
</g>
<rect x="193.783" y="33.3403" width="27" height="27" rx="13.5" fill="white"/>
<rect x="193.783" y="33.3403" width="27" height="27" rx="13.5" stroke="#B3B3B3" stroke-dasharray="2 2"/>
<g clip-path="url(#clip2_535_7995)">
<path d="M205.387 49.876L211.964 43.0809C212.119 42.9205 212.3 42.8403 212.507 42.8403C212.714 42.8403 212.895 42.9205 213.05 43.0809C213.206 43.2412 213.283 43.4318 213.283 43.6525C213.283 43.8733 213.206 44.0636 213.05 44.2234L205.93 51.5998C205.775 51.7602 205.594 51.8403 205.387 51.8403C205.18 51.8403 204.999 51.7602 204.844 51.5998L201.507 48.1521C201.352 47.9918 201.277 47.8015 201.284 47.5813C201.29 47.361 201.371 47.1705 201.526 47.0096C201.682 46.8487 201.867 46.7685 202.08 46.7691C202.293 46.7696 202.477 46.8498 202.632 47.0096L205.387 49.876Z" fill="#16A34A"/>
</g>
<rect x="302.554" y="65.2778" width="27" height="27" rx="13.5" fill="white"/>
<rect x="302.554" y="65.2778" width="27" height="27" rx="13.5" stroke="#B3B3B3" stroke-dasharray="2 2"/>
<g clip-path="url(#clip3_535_7995)">
<path d="M314.158 81.8135L320.734 75.0184C320.89 74.858 321.071 74.7778 321.278 74.7778C321.485 74.7778 321.666 74.858 321.821 75.0184C321.976 75.1787 322.054 75.3693 322.054 75.59C322.054 75.8108 321.976 76.0011 321.821 76.1609L314.701 83.5373C314.546 83.6977 314.365 83.7778 314.158 83.7778C313.951 83.7778 313.77 83.6977 313.614 83.5373L310.278 80.0896C310.122 79.9293 310.048 79.739 310.054 79.5188C310.06 79.2985 310.141 79.108 310.297 78.9471C310.453 78.7862 310.637 78.706 310.85 78.7066C311.063 78.7071 311.248 78.7873 311.403 78.9471L314.158 81.8135Z" fill="#16A34A"/>
</g>
<rect x="308.567" y="107.107" width="27" height="27" rx="13.5" fill="white"/>
<rect x="308.567" y="107.107" width="27" height="27" rx="13.5" stroke="#B3B3B3" stroke-dasharray="2 2"/>
<g clip-path="url(#clip4_535_7995)">
<path d="M320.171 123.643L326.748 116.848C326.903 116.688 327.084 116.607 327.291 116.607C327.498 116.607 327.679 116.688 327.835 116.848C327.99 117.008 328.067 117.199 328.067 117.42C328.067 117.64 327.99 117.831 327.835 117.99L320.715 125.367C320.559 125.527 320.378 125.607 320.171 125.607C319.964 125.607 319.783 125.527 319.628 125.367L316.291 121.919C316.136 121.759 316.062 121.569 316.068 121.348C316.074 121.128 316.155 120.938 316.311 120.777C316.466 120.616 316.651 120.536 316.864 120.536C317.077 120.537 317.261 120.617 317.416 120.777L320.171 123.643Z" fill="#16A34A"/>
</g>
<rect x="291.013" y="145.549" width="27" height="27" rx="13.5" fill="white"/>
<rect x="291.013" y="145.549" width="27" height="27" rx="13.5" stroke="#B3B3B3" stroke-dasharray="2 2"/>
<g clip-path="url(#clip5_535_7995)">
<path d="M302.617 162.084L309.193 155.289C309.349 155.129 309.53 155.049 309.737 155.049C309.944 155.049 310.125 155.129 310.28 155.289C310.435 155.45 310.513 155.64 310.513 155.861C310.513 156.082 310.435 156.272 310.28 156.432L303.16 163.808C303.005 163.969 302.824 164.049 302.617 164.049C302.41 164.049 302.229 163.969 302.073 163.808L298.737 160.361C298.581 160.2 298.507 160.01 298.513 159.79C298.519 159.57 298.6 159.379 298.756 159.218C298.912 159.057 299.096 158.977 299.309 158.978C299.522 158.978 299.707 159.058 299.862 159.218L302.617 162.084Z" fill="#16A34A"/>
</g>
<rect x="255.462" y="168.396" width="27" height="27" rx="13.5" fill="white"/>
<rect x="255.462" y="168.396" width="27" height="27" rx="13.5" stroke="#B3B3B3" stroke-dasharray="2 2"/>
<g clip-path="url(#clip6_535_7995)">
<path d="M267.066 184.932L273.643 178.137C273.798 177.976 273.979 177.896 274.186 177.896C274.393 177.896 274.574 177.976 274.729 178.137C274.884 178.297 274.962 178.487 274.962 178.708C274.962 178.929 274.884 179.119 274.729 179.279L267.609 186.655C267.454 186.816 267.273 186.896 267.066 186.896C266.859 186.896 266.678 186.816 266.523 186.655L263.186 183.208C263.031 183.047 262.956 182.857 262.962 182.637C262.968 182.417 263.049 182.226 263.205 182.065C263.361 181.904 263.545 181.824 263.758 181.825C263.972 181.825 264.156 181.905 264.311 182.065L267.066 184.932Z" fill="#16A34A"/>
</g>
<rect x="213.201" y="168.396" width="27" height="27" rx="13.5" fill="white"/>
<rect x="213.201" y="168.396" width="27" height="27" rx="13.5" stroke="#B3B3B3" stroke-dasharray="2 2"/>
<g clip-path="url(#clip7_535_7995)">
<path d="M224.805 184.932L231.382 178.137C231.537 177.976 231.718 177.896 231.925 177.896C232.132 177.896 232.313 177.976 232.468 178.137C232.624 178.297 232.701 178.487 232.701 178.708C232.701 178.929 232.624 179.119 232.468 179.279L225.348 186.655C225.193 186.816 225.012 186.896 224.805 186.896C224.598 186.896 224.417 186.816 224.262 186.655L220.925 183.208C220.77 183.047 220.695 182.857 220.702 182.637C220.708 182.417 220.789 182.226 220.944 182.065C221.1 181.904 221.285 181.824 221.498 181.825C221.711 181.825 221.895 181.905 222.05 182.065L224.805 184.932Z" fill="#16A34A"/>
</g>
<rect x="177.65" y="145.548" width="27" height="27" rx="13.5" fill="white"/>
<rect x="177.65" y="145.548" width="27" height="27" rx="13.5" stroke="#B3B3B3" stroke-dasharray="2 2"/>
<g clip-path="url(#clip8_535_7995)">
<path d="M189.254 162.084L195.831 155.289C195.986 155.129 196.167 155.048 196.374 155.048C196.581 155.048 196.762 155.129 196.918 155.289C197.073 155.449 197.15 155.64 197.15 155.861C197.15 156.081 197.073 156.272 196.918 156.431L189.798 163.808C189.642 163.968 189.461 164.048 189.254 164.048C189.047 164.048 188.866 163.968 188.711 163.808L185.374 160.36C185.219 160.2 185.145 160.009 185.151 159.789C185.157 159.569 185.238 159.378 185.394 159.218C185.549 159.057 185.734 158.977 185.947 158.977C186.16 158.978 186.344 159.058 186.499 159.218L189.254 162.084Z" fill="#16A34A"/>
</g>
<rect x="166.109" y="65.2778" width="27" height="27" rx="13.5" fill="white"/>
<rect x="166.109" y="65.2778" width="27" height="27" rx="13.5" stroke="#B3B3B3" stroke-dasharray="2 2"/>
<g clip-path="url(#clip9_535_7995)">
<path d="M177.713 81.8135L184.29 75.0184C184.445 74.858 184.626 74.7778 184.833 74.7778C185.04 74.7778 185.221 74.858 185.377 75.0184C185.532 75.1787 185.609 75.3693 185.609 75.59C185.609 75.8108 185.532 76.0011 185.377 76.1609L178.257 83.5373C178.101 83.6977 177.92 83.7778 177.713 83.7778C177.506 83.7778 177.325 83.6977 177.17 83.5373L173.833 80.0896C173.678 79.9293 173.604 79.739 173.61 79.5188C173.616 79.2985 173.697 79.108 173.853 78.9471C174.008 78.7862 174.193 78.706 174.406 78.7066C174.619 78.7071 174.803 78.7873 174.958 78.9471L177.713 81.8135Z" fill="#16A34A"/>
</g>
<rect x="160.096" y="107.107" width="27" height="27" rx="13.5" fill="white"/>
<rect x="160.096" y="107.107" width="27" height="27" rx="13.5" stroke="#B3B3B3" stroke-dasharray="2 2"/>
<g clip-path="url(#clip10_535_7995)">
<path d="M171.7 123.643L178.276 116.848C178.432 116.688 178.613 116.607 178.82 116.607C179.027 116.607 179.208 116.688 179.363 116.848C179.518 117.008 179.596 117.199 179.596 117.42C179.596 117.64 179.518 117.831 179.363 117.99L172.243 125.367C172.088 125.527 171.907 125.607 171.7 125.607C171.493 125.607 171.312 125.527 171.156 125.367L167.82 121.919C167.664 121.759 167.59 121.569 167.596 121.348C167.602 121.128 167.683 120.938 167.839 120.777C167.995 120.616 168.179 120.536 168.392 120.536C168.605 120.537 168.79 120.617 168.945 120.777L171.7 123.643Z" fill="#16A34A"/>
</g>
<defs>
<filter id="filter0_dddd_535_7995" x="206" y="77" width="84" height="99" filterUnits="userSpaceOnUse" color-interpolation-filters="sRGB">
<feFlood flood-opacity="0" result="BackgroundImageFix"/>
<feColorMatrix in="SourceAlpha" type="matrix" values="0 0 0 0 0 0 0 0 0 0 0 0 0 0 0 0 0 0 127 0" result="hardAlpha"/>
<feOffset dy="2"/>
<feGaussianBlur stdDeviation="1.5"/>
<feColorMatrix type="matrix" values="0 0 0 0 0.0509804 0 0 0 0 0.541176 0 0 0 0 0.94902 0 0 0 0.16 0"/>
<feBlend mode="normal" in2="BackgroundImageFix" result="effect1_dropShadow_535_7995"/>
<feColorMatrix in="SourceAlpha" type="matrix" values="0 0 0 0 0 0 0 0 0 0 0 0 0 0 0 0 0 0 127 0" result="hardAlpha"/>
<feOffset dy="6"/>
<feGaussianBlur stdDeviation="3"/>
<feColorMatrix type="matrix" values="0 0 0 0 0.0509804 0 0 0 0 0.541176 0 0 0 0 0.94902 0 0 0 0.14 0"/>
<feBlend mode="normal" in2="effect1_dropShadow_535_7995" result="effect2_dropShadow_535_7995"/>
<feColorMatrix in="SourceAlpha" type="matrix" values="0 0 0 0 0 0 0 0 0 0 0 0 0 0 0 0 0 0 127 0" result="hardAlpha"/>
<feOffset dy="14"/>
<feGaussianBlur stdDeviation="4"/>
<feColorMatrix type="matrix" values="0 0 0 0 0.0509804 0 0 0 0 0.541176 0 0 0 0 0.94902 0 0 0 0.08 0"/>
<feBlend mode="normal" in2="effect2_dropShadow_535_7995" result="effect3_dropShadow_535_7995"/>
<feColorMatrix in="SourceAlpha" type="matrix" values="0 0 0 0 0 0 0 0 0 0 0 0 0 0 0 0 0 0 127 0" result="hardAlpha"/>
<feOffset dy="24"/>
<feGaussianBlur stdDeviation="5"/>
<feColorMatrix type="matrix" values="0 0 0 0 0.0509804 0 0 0 0 0.541176 0 0 0 0 0.94902 0 0 0 0.02 0"/>
<feBlend mode="normal" in2="effect3_dropShadow_535_7995" result="effect4_dropShadow_535_7995"/>
<feBlend mode="normal" in="SourceGraphic" in2="effect4_dropShadow_535_7995" result="shape"/>
</filter>
<linearGradient id="paint0_linear_535_7995" x1="248" y1="0" x2="248" y2="220" gradientUnits="userSpaceOnUse">
<stop offset="0.399038" stop-color="white" stop-opacity="0"/>
<stop offset="1" stop-color="white" stop-opacity="0.7"/>
</linearGradient>
<linearGradient id="paint1_linear_535_7995" x1="221.5" y1="89.5" x2="268.5" y2="136.5" gradientUnits="userSpaceOnUse">
<stop stop-color="#4D71BD"/>
<stop offset="0.307692" stop-color="#1A243B"/>
<stop offset="0.504808" stop-color="#3557A2"/>
<stop offset="0.673077" stop-color="#2B3C60"/>
<stop offset="0.822115" stop-color="#6382C5"/>
<stop offset="1" stop-color="#3A5182"/>
</linearGradient>
<clipPath id="clip0_535_7995">
<rect width="12" height="12" fill="white" transform="translate(241.832 28.9341)"/>
</clipPath>
<clipPath id="clip1_535_7995">
<rect width="12" height="12" fill="white" transform="translate(282.381 40.8403)"/>
</clipPath>
<clipPath id="clip2_535_7995">
<rect width="12" height="12" fill="white" transform="translate(201.283 40.8403)"/>
</clipPath>
<clipPath id="clip3_535_7995">
<rect width="12" height="12" fill="white" transform="translate(310.054 72.7778)"/>
</clipPath>
<clipPath id="clip4_535_7995">
<rect width="12" height="12" fill="white" transform="translate(316.067 114.607)"/>
</clipPath>
<clipPath id="clip5_535_7995">
<rect width="12" height="12" fill="white" transform="translate(298.513 153.049)"/>
</clipPath>
<clipPath id="clip6_535_7995">
<rect width="12" height="12" fill="white" transform="translate(262.962 175.896)"/>
</clipPath>
<clipPath id="clip7_535_7995">
<rect width="12" height="12" fill="white" transform="translate(220.701 175.896)"/>
</clipPath>
<clipPath id="clip8_535_7995">
<rect width="12" height="12" fill="white" transform="translate(185.15 153.048)"/>
</clipPath>
<clipPath id="clip9_535_7995">
<rect width="12" height="12" fill="white" transform="translate(173.609 72.7778)"/>
</clipPath>
<clipPath id="clip10_535_7995">
<rect width="12" height="12" fill="white" transform="translate(167.596 114.607)"/>
</clipPath>
<pattern id="pattern0_535_7995" patternUnits="userSpaceOnUse" patternTransform="matrix(35.624 0 0 35.624 0 0)" preserveAspectRatio="none" viewBox="0 0 48.8 48.8" width="1" height="1">
<g id="pattern0_535_7995_inner">
<rect x="7" width="2" height="16" rx="1" fill="#A8A8A8"/>
<rect x="16" y="7" width="2" height="16" rx="1" transform="rotate(90 16 7)" fill="#A8A8A8"/>
</g>
</pattern></defs>
</svg>
