<svg width="496" height="220" viewBox="0 0 496 220" fill="none" xmlns="http://www.w3.org/2000/svg" xmlns:xlink="http://www.w3.org/1999/xlink">
<rect width="496" height="220" fill="white"/>
<rect width="496" height="220" fill="url(#pattern0_535_7971)" fill-opacity="0.2"/>
<path d="M248 109L64 126M248 109L140 83M248 109L182 198M248 109L204 30M248 109L322 185M248 109L426 149M248 109L354 93M248 109L404 52" stroke="#B3B3B3" stroke-dasharray="3 3"/>
<g filter="url(#filter0_dddd_535_7971)">
<rect x="216" y="78" width="64" height="64" rx="32" fill="#0D121C"/>
<rect x="217" y="79" width="62" height="62" rx="31" stroke="url(#paint0_linear_535_7971)" stroke-width="2"/>
<path d="M242.54 99.1503C240.102 100.965 239.447 103.837 239.567 105.366C239.72 107.236 240.1 109.669 240.1 109.669C240.1 109.669 239.348 110.077 239.348 111.719C239.61 115.84 240.988 114.062 241.271 115.869C241.952 120.222 243.51 119.447 243.51 121.823C243.51 125.781 241.878 127.631 236.783 129.825C231.671 132.028 226.4 134.8 226.4 139.6V142H269.6V139.6C269.6 134.8 264.328 132.028 259.213 129.827C254.118 127.633 252.491 125.785 252.491 121.825C252.491 119.449 254.044 120.225 254.728 115.871C255.013 114.064 256.388 115.842 256.655 111.721C256.655 110.08 255.901 109.672 255.901 109.672C255.901 109.672 256.28 107.238 256.432 105.369C256.588 103.408 255.476 99.2223 250.912 97.9383C250.112 97.1223 249.572 95.8239 252.03 94.5207C246.654 94.2687 245.404 97.0815 242.54 99.1503Z" fill="white"/>
</g>
<rect x="50.5" y="112.5" width="27" height="27" rx="13.5" fill="white"/>
<rect x="50.5" y="112.5" width="27" height="27" rx="13.5" stroke="#B3B3B3" stroke-dasharray="2 2"/>
<circle cx="64" cy="126" r="10" fill="white"/>
<path fill-rule="evenodd" clip-rule="evenodd" d="M64.0068 127.615L68.048 131.652C68.2624 131.866 68.5533 131.986 68.8566 131.986C69.1598 131.986 69.4507 131.866 69.6651 131.652C69.8795 131.438 70 131.147 70 130.844C70 130.541 69.8795 130.251 69.6651 130.037L65.6224 126L69.6643 121.963C69.7705 121.857 69.8546 121.731 69.9121 121.593C69.9695 121.454 69.999 121.306 69.999 121.156C69.9989 121.006 69.9693 120.857 69.9118 120.719C69.8544 120.58 69.7701 120.455 69.6639 120.349C69.5578 120.243 69.4317 120.158 69.293 120.101C69.1543 120.044 69.0056 120.014 68.8555 120.014C68.7054 120.014 68.5567 120.044 68.4181 120.101C68.2794 120.159 68.1534 120.243 68.0472 120.349L64.0068 124.386L59.9657 120.349C59.8603 120.24 59.7342 120.153 59.5947 120.093C59.4553 120.033 59.3053 120.001 59.1536 120C59.0018 119.999 58.8512 120.027 58.7107 120.085C58.5702 120.142 58.4426 120.227 58.3352 120.334C58.2278 120.441 58.1429 120.569 58.0853 120.709C58.0278 120.849 57.9988 121 58 121.151C58.0013 121.303 58.0327 121.453 58.0926 121.592C58.1524 121.731 58.2395 121.857 58.3486 121.963L62.3913 126L58.3493 130.037C58.2402 130.143 58.1532 130.269 58.0934 130.408C58.0335 130.547 58.002 130.697 58.0008 130.849C57.9996 131 58.0285 131.151 58.0861 131.291C58.1436 131.431 58.2286 131.559 58.3359 131.666C58.4433 131.773 58.571 131.858 58.7115 131.915C58.852 131.973 59.0025 132.001 59.1543 132C59.3061 131.999 59.4561 131.967 59.5955 131.907C59.7349 131.847 59.861 131.76 59.9664 131.651L64.0068 127.615Z" fill="#F34747"/>
<rect x="308.5" y="171.5" width="27" height="27" rx="13.5" fill="white"/>
<rect x="308.5" y="171.5" width="27" height="27" rx="13.5" stroke="#B3B3B3" stroke-dasharray="2 2"/>
<path fill-rule="evenodd" clip-rule="evenodd" d="M322.007 186.615L326.048 190.652C326.262 190.866 326.553 190.986 326.857 190.986C327.16 190.986 327.451 190.866 327.665 190.652C327.88 190.438 328 190.147 328 189.844C328 189.541 327.88 189.251 327.665 189.037L323.622 185L327.664 180.963C327.77 180.857 327.855 180.731 327.912 180.593C327.969 180.454 327.999 180.306 327.999 180.156C327.999 180.006 327.969 179.857 327.912 179.719C327.854 179.58 327.77 179.455 327.664 179.349C327.558 179.243 327.432 179.158 327.293 179.101C327.154 179.044 327.006 179.014 326.856 179.014C326.705 179.014 326.557 179.044 326.418 179.101C326.279 179.159 326.153 179.243 326.047 179.349L322.007 183.386L317.966 179.349C317.86 179.24 317.734 179.153 317.595 179.093C317.455 179.033 317.305 179.001 317.154 179C317.002 178.999 316.851 179.027 316.711 179.085C316.57 179.142 316.443 179.227 316.335 179.334C316.228 179.441 316.143 179.569 316.085 179.709C316.028 179.849 315.999 180 316 180.151C316.001 180.303 316.033 180.453 316.093 180.592C316.152 180.731 316.239 180.857 316.349 180.963L320.391 185L316.349 189.037C316.24 189.143 316.153 189.269 316.093 189.408C316.034 189.547 316.002 189.697 316.001 189.849C316 190 316.029 190.151 316.086 190.291C316.144 190.431 316.229 190.559 316.336 190.666C316.443 190.773 316.571 190.858 316.711 190.915C316.852 190.973 317.003 191.001 317.154 191C317.306 190.999 317.456 190.967 317.596 190.907C317.735 190.847 317.861 190.76 317.966 190.651L322.007 186.615Z" fill="#F34747"/>
<rect x="168.5" y="184.5" width="27" height="27" rx="13.5" fill="white"/>
<rect x="168.5" y="184.5" width="27" height="27" rx="13.5" stroke="#B3B3B3" stroke-dasharray="2 2"/>
<path fill-rule="evenodd" clip-rule="evenodd" d="M182.007 199.615L186.048 203.652C186.262 203.866 186.553 203.986 186.857 203.986C187.16 203.986 187.451 203.866 187.665 203.652C187.88 203.438 188 203.147 188 202.844C188 202.541 187.88 202.251 187.665 202.037L183.622 198L187.664 193.963C187.77 193.857 187.855 193.731 187.912 193.593C187.969 193.454 187.999 193.306 187.999 193.156C187.999 193.006 187.969 192.857 187.912 192.719C187.854 192.58 187.77 192.455 187.664 192.349C187.558 192.243 187.432 192.158 187.293 192.101C187.154 192.044 187.006 192.014 186.856 192.014C186.705 192.014 186.557 192.044 186.418 192.101C186.279 192.159 186.153 192.243 186.047 192.349L182.007 196.386L177.966 192.349C177.86 192.24 177.734 192.153 177.595 192.093C177.455 192.033 177.305 192.001 177.154 192C177.002 191.999 176.851 192.027 176.711 192.085C176.57 192.142 176.443 192.227 176.335 192.334C176.228 192.441 176.143 192.569 176.085 192.709C176.028 192.849 175.999 193 176 193.151C176.001 193.303 176.033 193.453 176.093 193.592C176.152 193.731 176.239 193.857 176.349 193.963L180.391 198L176.349 202.037C176.24 202.143 176.153 202.269 176.093 202.408C176.034 202.547 176.002 202.697 176.001 202.849C176 203 176.029 203.151 176.086 203.291C176.144 203.431 176.229 203.559 176.336 203.666C176.443 203.773 176.571 203.858 176.711 203.915C176.852 203.973 177.003 204.001 177.154 204C177.306 203.999 177.456 203.967 177.596 203.907C177.735 203.847 177.861 203.76 177.966 203.651L182.007 199.615Z" fill="#F34747"/>
<rect x="412.5" y="135.5" width="27" height="27" rx="13.5" fill="white"/>
<rect x="412.5" y="135.5" width="27" height="27" rx="13.5" stroke="#B3B3B3" stroke-dasharray="2 2"/>
<path fill-rule="evenodd" clip-rule="evenodd" d="M426.007 150.615L430.048 154.652C430.262 154.866 430.553 154.986 430.857 154.986C431.16 154.986 431.451 154.866 431.665 154.652C431.88 154.438 432 154.147 432 153.844C432 153.541 431.88 153.251 431.665 153.037L427.622 149L431.664 144.963C431.77 144.857 431.855 144.731 431.912 144.593C431.969 144.454 431.999 144.306 431.999 144.156C431.999 144.006 431.969 143.857 431.912 143.719C431.854 143.58 431.77 143.455 431.664 143.349C431.558 143.243 431.432 143.158 431.293 143.101C431.154 143.044 431.006 143.014 430.856 143.014C430.705 143.014 430.557 143.044 430.418 143.101C430.279 143.159 430.153 143.243 430.047 143.349L426.007 147.386L421.966 143.349C421.86 143.24 421.734 143.153 421.595 143.093C421.455 143.033 421.305 143.001 421.154 143C421.002 142.999 420.851 143.027 420.711 143.085C420.57 143.142 420.443 143.227 420.335 143.334C420.228 143.441 420.143 143.569 420.085 143.709C420.028 143.849 419.999 144 420 144.151C420.001 144.303 420.033 144.453 420.093 144.592C420.152 144.731 420.239 144.857 420.349 144.963L424.391 149L420.349 153.037C420.24 153.143 420.153 153.269 420.093 153.408C420.034 153.547 420.002 153.697 420.001 153.849C420 154 420.029 154.151 420.086 154.291C420.144 154.431 420.229 154.559 420.336 154.666C420.443 154.773 420.571 154.858 420.711 154.915C420.852 154.973 421.003 155.001 421.154 155C421.306 154.999 421.456 154.967 421.596 154.907C421.735 154.847 421.861 154.76 421.966 154.651L426.007 150.615Z" fill="#F34747"/>
<rect x="390.5" y="38.5" width="27" height="27" rx="13.5" fill="white"/>
<rect x="390.5" y="38.5" width="27" height="27" rx="13.5" stroke="#B3B3B3" stroke-dasharray="2 2"/>
<path fill-rule="evenodd" clip-rule="evenodd" d="M404.007 53.6152L408.048 57.6518C408.262 57.866 408.553 57.9863 408.857 57.9863C409.16 57.9863 409.451 57.866 409.665 57.6518C409.88 57.4376 410 57.1471 410 56.8442C410 56.5413 409.88 56.2508 409.665 56.0366L405.622 52L409.664 47.9634C409.77 47.8574 409.855 47.7315 409.912 47.5929C409.969 47.4544 409.999 47.3059 409.999 47.1559C409.999 47.006 409.969 46.8575 409.912 46.719C409.854 46.5804 409.77 46.4546 409.664 46.3486C409.558 46.2426 409.432 46.1585 409.293 46.1011C409.154 46.0438 409.006 46.0143 408.856 46.0143C408.705 46.0144 408.557 46.0439 408.418 46.1013C408.279 46.1588 408.153 46.2429 408.047 46.349L404.007 50.3855L399.966 46.349C399.86 46.2399 399.734 46.1528 399.595 46.0929C399.455 46.033 399.305 46.0014 399.154 46C399.002 45.9987 398.851 46.0275 398.711 46.0848C398.57 46.1422 398.443 46.2269 398.335 46.334C398.228 46.4412 398.143 46.5686 398.085 46.7089C398.028 46.8492 397.999 46.9996 398 47.1512C398.001 47.3028 398.033 47.4526 398.093 47.5919C398.152 47.7313 398.239 47.8573 398.349 47.9627L402.391 52L398.349 56.0373C398.24 56.1427 398.153 56.2687 398.093 56.4081C398.034 56.5474 398.002 56.6972 398.001 56.8488C398 57.0004 398.029 57.1508 398.086 57.2911C398.144 57.4314 398.229 57.5588 398.336 57.666C398.443 57.7731 398.571 57.8578 398.711 57.9152C398.852 57.9725 399.003 58.0013 399.154 58C399.306 57.9986 399.456 57.967 399.596 57.9071C399.735 57.8472 399.861 57.7601 399.966 57.651L404.007 53.6152Z" fill="#F34747"/>
<rect x="340.5" y="79.5" width="27" height="27" rx="13.5" fill="white"/>
<rect x="340.5" y="79.5" width="27" height="27" rx="13.5" stroke="#B3B3B3" stroke-dasharray="2 2"/>
<path d="M352.104 96.0356L358.681 89.2405C358.836 89.0802 359.017 89 359.224 89C359.431 89 359.612 89.0802 359.767 89.2405C359.922 89.4009 360 89.5914 360 89.8122C360 90.033 359.922 90.2233 359.767 90.3831L352.647 97.7595C352.492 97.9198 352.311 98 352.104 98C351.897 98 351.716 97.9198 351.561 97.7595L348.224 94.3118C348.069 94.1514 347.994 93.9612 348 93.7409C348.007 93.5207 348.088 93.3302 348.243 93.1693C348.399 93.0084 348.583 92.9282 348.797 92.9287C349.01 92.9293 349.194 93.0094 349.349 93.1693L352.104 96.0356Z" fill="#16A34A"/>
<rect x="126.5" y="69.5" width="27" height="27" rx="13.5" fill="white"/>
<rect x="126.5" y="69.5" width="27" height="27" rx="13.5" stroke="#B3B3B3" stroke-dasharray="2 2"/>
<path fill-rule="evenodd" clip-rule="evenodd" d="M140.007 84.6152L144.048 88.6518C144.262 88.866 144.553 88.9863 144.857 88.9863C145.16 88.9863 145.451 88.866 145.665 88.6518C145.88 88.4376 146 88.1471 146 87.8442C146 87.5413 145.88 87.2508 145.665 87.0366L141.622 83L145.664 78.9634C145.77 78.8574 145.855 78.7315 145.912 78.5929C145.969 78.4544 145.999 78.3059 145.999 78.1559C145.999 78.006 145.969 77.8575 145.912 77.719C145.854 77.5804 145.77 77.4546 145.664 77.3486C145.558 77.2426 145.432 77.1585 145.293 77.1011C145.154 77.0438 145.006 77.0143 144.856 77.0143C144.705 77.0144 144.557 77.0439 144.418 77.1013C144.279 77.1588 144.153 77.2429 144.047 77.349L140.007 81.3855L135.966 77.349C135.86 77.2399 135.734 77.1528 135.595 77.0929C135.455 77.033 135.305 77.0014 135.154 77C135.002 76.9987 134.851 77.0275 134.711 77.0848C134.57 77.1422 134.443 77.2269 134.335 77.334C134.228 77.4412 134.143 77.5686 134.085 77.7089C134.028 77.8492 133.999 77.9996 134 78.1512C134.001 78.3028 134.033 78.4526 134.093 78.5919C134.152 78.7313 134.239 78.8573 134.349 78.9627L138.391 83L134.349 87.0373C134.24 87.1427 134.153 87.2687 134.093 87.4081C134.034 87.5474 134.002 87.6972 134.001 87.8488C134 88.0004 134.029 88.1508 134.086 88.2911C134.144 88.4314 134.229 88.5588 134.336 88.666C134.443 88.7731 134.571 88.8578 134.711 88.9152C134.852 88.9725 135.003 89.0013 135.154 89C135.306 88.9986 135.456 88.967 135.596 88.9071C135.735 88.8472 135.861 88.7601 135.966 88.651L140.007 84.6152Z" fill="#F34747"/>
<rect x="190.5" y="16.5" width="27" height="27" rx="13.5" fill="white"/>
<rect x="190.5" y="16.5" width="27" height="27" rx="13.5" stroke="#B3B3B3" stroke-dasharray="2 2"/>
<path fill-rule="evenodd" clip-rule="evenodd" d="M204.007 31.6152L208.048 35.6518C208.262 35.866 208.553 35.9863 208.857 35.9863C209.16 35.9863 209.451 35.866 209.665 35.6518C209.88 35.4376 210 35.1471 210 34.8442C210 34.5413 209.88 34.2508 209.665 34.0366L205.622 30L209.664 25.9634C209.77 25.8574 209.855 25.7315 209.912 25.5929C209.969 25.4544 209.999 25.3059 209.999 25.1559C209.999 25.006 209.969 24.8575 209.912 24.719C209.854 24.5804 209.77 24.4546 209.664 24.3486C209.558 24.2426 209.432 24.1585 209.293 24.1011C209.154 24.0438 209.006 24.0143 208.856 24.0143C208.705 24.0144 208.557 24.0439 208.418 24.1013C208.279 24.1588 208.153 24.2429 208.047 24.349L204.007 28.3855L199.966 24.349C199.86 24.2399 199.734 24.1528 199.595 24.0929C199.455 24.033 199.305 24.0014 199.154 24C199.002 23.9987 198.851 24.0275 198.711 24.0848C198.57 24.1422 198.443 24.2269 198.335 24.334C198.228 24.4412 198.143 24.5686 198.085 24.7089C198.028 24.8492 197.999 24.9996 198 25.1512C198.001 25.3028 198.033 25.4526 198.093 25.5919C198.152 25.7313 198.239 25.8573 198.349 25.9627L202.391 30L198.349 34.0373C198.24 34.1427 198.153 34.2687 198.093 34.4081C198.034 34.5474 198.002 34.6972 198.001 34.8488C198 35.0004 198.029 35.1508 198.086 35.2911C198.144 35.4314 198.229 35.5588 198.336 35.666C198.443 35.7731 198.571 35.8578 198.711 35.9152C198.852 35.9725 199.003 36.0013 199.154 36C199.306 35.9986 199.456 35.967 199.596 35.9071C199.735 35.8472 199.861 35.7601 199.966 35.651L204.007 31.6152Z" fill="#F34747"/>
<defs>
<filter id="filter0_dddd_535_7971" x="206" y="77" width="84" height="99" filterUnits="userSpaceOnUse" color-interpolation-filters="sRGB">
<feFlood flood-opacity="0" result="BackgroundImageFix"/>
<feColorMatrix in="SourceAlpha" type="matrix" values="0 0 0 0 0 0 0 0 0 0 0 0 0 0 0 0 0 0 127 0" result="hardAlpha"/>
<feOffset dy="2"/>
<feGaussianBlur stdDeviation="1.5"/>
<feColorMatrix type="matrix" values="0 0 0 0 0.0509804 0 0 0 0 0.541176 0 0 0 0 0.94902 0 0 0 0.16 0"/>
<feBlend mode="normal" in2="BackgroundImageFix" result="effect1_dropShadow_535_7971"/>
<feColorMatrix in="SourceAlpha" type="matrix" values="0 0 0 0 0 0 0 0 0 0 0 0 0 0 0 0 0 0 127 0" result="hardAlpha"/>
<feOffset dy="6"/>
<feGaussianBlur stdDeviation="3"/>
<feColorMatrix type="matrix" values="0 0 0 0 0.0509804 0 0 0 0 0.541176 0 0 0 0 0.94902 0 0 0 0.14 0"/>
<feBlend mode="normal" in2="effect1_dropShadow_535_7971" result="effect2_dropShadow_535_7971"/>
<feColorMatrix in="SourceAlpha" type="matrix" values="0 0 0 0 0 0 0 0 0 0 0 0 0 0 0 0 0 0 127 0" result="hardAlpha"/>
<feOffset dy="14"/>
<feGaussianBlur stdDeviation="4"/>
<feColorMatrix type="matrix" values="0 0 0 0 0.0509804 0 0 0 0 0.541176 0 0 0 0 0.94902 0 0 0 0.08 0"/>
<feBlend mode="normal" in2="effect2_dropShadow_535_7971" result="effect3_dropShadow_535_7971"/>
<feColorMatrix in="SourceAlpha" type="matrix" values="0 0 0 0 0 0 0 0 0 0 0 0 0 0 0 0 0 0 127 0" result="hardAlpha"/>
<feOffset dy="24"/>
<feGaussianBlur stdDeviation="5"/>
<feColorMatrix type="matrix" values="0 0 0 0 0.0509804 0 0 0 0 0.541176 0 0 0 0 0.94902 0 0 0 0.02 0"/>
<feBlend mode="normal" in2="effect3_dropShadow_535_7971" result="effect4_dropShadow_535_7971"/>
<feBlend mode="normal" in="SourceGraphic" in2="effect4_dropShadow_535_7971" result="shape"/>
</filter>
<linearGradient id="paint0_linear_535_7971" x1="221.5" y1="89.5" x2="268.5" y2="136.5" gradientUnits="userSpaceOnUse">
<stop stop-color="#4D71BD"/>
<stop offset="0.307692" stop-color="#1A243B"/>
<stop offset="0.504808" stop-color="#3557A2"/>
<stop offset="0.673077" stop-color="#2B3C60"/>
<stop offset="0.822115" stop-color="#6382C5"/>
<stop offset="1" stop-color="#3A5182"/>
</linearGradient>
<pattern id="pattern0_535_7971" patternUnits="userSpaceOnUse" patternTransform="matrix(35.624 0 0 35.624 0 0)" preserveAspectRatio="none" viewBox="0 0 48.8 48.8" width="1" height="1">
<g id="pattern0_535_7971_inner">
<rect x="7" width="2" height="16" rx="1" fill="#A8A8A8"/>
<rect x="16" y="7" width="2" height="16" rx="1" transform="rotate(90 16 7)" fill="#A8A8A8"/>
</g>
</pattern></defs>
</svg>
