<svg width="381" height="140" viewBox="0 0 381 140" fill="none" xmlns="http://www.w3.org/2000/svg" xmlns:xlink="http://www.w3.org/1999/xlink">
<rect width="397" height="207" rx="12" fill="#F5F5F5"/>
<rect width="397" height="207" rx="12" fill="url(#pattern0_538_9052)" fill-opacity="0.2"/>
<rect width="397" height="207" rx="12" fill="url(#paint0_linear_538_9052)"/>
<defs>
<linearGradient id="paint0_linear_538_9052" x1="198.5" y1="0" x2="198.5" y2="207" gradientUnits="userSpaceOnUse">
<stop offset="0.399038" stop-color="#F5F5F5" stop-opacity="0"/>
<stop offset="1" stop-color="#F5F5F5" stop-opacity="0.7"/>
</linearGradient>
<pattern id="pattern0_538_9052" patternUnits="userSpaceOnUse" patternTransform="matrix(73.6141 0 0 26.1718 0 0)" preserveAspectRatio="none" viewBox="0 0 115.022 40.8935" width="1" height="1">
<use xlink:href="#pattern0_538_9052_inner" transform="translate(0 -40.8935)"/>
<use xlink:href="#pattern0_538_9052_inner" transform="translate(57.511 -20.4467)"/>
<g id="pattern0_538_9052_inner">
<path d="M17 14.15L3 14.15C2.5 14.15 2.1 13.85 2 13.35L0 3.35C0 2.95 0.1 2.55 0.5 2.25C0.9 2.05 1.3 2.05 1.6 2.25L5.7 5.55L9.1 0.45C9.5 -0.15 10.4 -0.15 10.8 0.45L14.2 5.55L18.3 2.25C18.6 1.95 19.1 1.95 19.4 2.25C19.8 2.45 19.9 2.85 19.9 3.35L17.9 13.35C17.9 13.85 17.4 14.15 16.9 14.15H17Z" fill="#A8A8A8"/>
</g>
<use xlink:href="#pattern0_538_9052_inner" transform="translate(57.511 20.4467)"/>
</pattern></defs>
</svg>
