<svg width="96" height="41" viewBox="0 0 96 41" fill="none" xmlns="http://www.w3.org/2000/svg">
<path d="M37.9698 1.12859C40.0151 -0.583602 43.0646 -0.317681 44.7809 1.72282C45.8944 3.04669 46.173 4.79215 45.6728 6.3225C45.3653 7.26335 45.3406 8.36079 45.9933 9.10599L46.7219 9.93791C47.4126 10.7265 48.5811 10.8483 49.5297 10.4C49.6932 10.3227 49.8589 10.2493 50.0266 10.18C52.0276 9.35316 54.2295 9.13688 56.3537 9.55842C57.502 9.78629 58.5996 10.1952 59.6078 10.7641C60.2646 11.1347 61.1027 11.0828 61.6375 10.5517C62.1777 10.0151 62.1929 9.16161 62.036 8.41739C61.8492 7.53186 62.0573 6.57287 62.6856 5.82579C63.7718 4.5344 65.7015 4.366 66.996 5.44961C68.2904 6.53322 68.4592 8.45842 67.3731 9.7498C66.7504 10.49 65.8508 10.8608 64.9525 10.8386C64.2956 10.8223 63.596 10.9229 63.1304 11.3854L61.9606 12.5476C61.9605 12.5475 61.9605 12.5477 61.9606 12.5476C61.9607 12.5477 61.9607 12.5483 61.9606 12.5484L60.6518 13.8541C59.9289 14.5753 58.7639 14.5497 57.8819 14.034C57.1883 13.6286 56.4283 13.3389 55.6314 13.1808C54.2253 12.9017 52.7679 13.045 51.4434 13.5924C50.1188 14.1397 48.9864 15.0667 48.1899 16.256C47.3935 17.4452 46.9683 18.8433 46.9683 20.2735C46.9683 21.7038 47.3934 23.1021 48.1899 24.2914C48.9864 25.4806 50.1188 26.4076 51.4434 26.955C52.7679 27.5023 54.2254 27.6456 55.6314 27.3666C56.4283 27.2084 57.1885 26.9187 57.8821 26.5132C58.764 25.9975 59.9288 25.9719 60.6517 26.693C61.3747 27.4141 61.3819 28.5988 60.5476 29.1884C59.2976 30.0719 57.8697 30.6881 56.3537 30.9889C55.2549 31.207 54.1353 31.2541 53.0335 31.1344C52.1182 31.0349 51.1964 31.5022 50.8843 32.3663C50.6085 33.1297 50.9259 33.9623 51.4055 34.6176C52.1694 35.6613 52.415 37.0532 51.9387 38.3589C51.179 40.4412 48.8711 41.5148 46.7838 40.7569C44.6964 39.999 43.6199 37.6966 44.3797 35.6142C44.8954 34.2005 46.1247 33.2522 47.5141 33.0261C48.3019 32.8978 49.0905 32.4912 49.3611 31.7421C49.6528 30.9344 49.2559 30.0504 48.521 29.6039C47.1661 28.7808 46.0006 27.6702 45.1118 26.3432C43.9085 24.5466 43.266 22.4343 43.266 20.2735C43.266 19.6306 42.8136 19.0546 42.1738 18.9782L40.9661 18.8339C40.5149 18.78 40.193 18.3713 40.2471 17.9211C40.3011 17.4711 40.7107 17.1499 41.1618 17.2038L42.098 17.3157C42.9734 17.4202 43.7778 16.8573 44.119 16.0463C44.3888 15.4049 44.7208 14.7877 45.1118 14.2038C45.1945 14.0804 45.2795 13.9588 45.3669 13.8392C46.0149 12.9519 46.0913 11.7126 45.3672 10.886L44.7927 10.2301C44.1283 9.47154 43.0096 9.35901 42.019 9.55437C40.3456 9.8844 38.5481 9.31903 37.3742 7.9233C35.6579 5.88282 35.9246 2.84081 37.9698 1.12859Z" fill="#222222"/>
<path d="M3.15629 22.0004C3.15629 22.8699 2.44973 23.5748 1.57815 23.5748C0.70656 23.5748 0 22.8699 0 22.0004V7.1663C0 6.29677 0.70656 5.59188 1.57815 5.59188C2.44973 5.59188 3.15629 6.29677 3.15629 7.16631V13.0212H11.1457V7.16631C11.1457 6.29677 11.8522 5.59188 12.7238 5.59188C13.5954 5.59188 14.302 6.29677 14.302 7.16631V22.0004C14.302 22.8699 13.5954 23.5748 12.7238 23.5748C11.8522 23.5748 11.1457 22.8699 11.1457 22.0004V15.9487H3.15629V22.0004Z" fill="#222222"/>
<path d="M24.3355 12.9228C24.3355 12.094 25.0089 11.4222 25.8397 11.4222C26.6704 11.4222 27.3438 12.094 27.3438 12.9228V22.0906C27.3438 22.9103 26.6777 23.5748 25.8561 23.5748C25.1121 23.5748 24.4825 23.0265 24.3819 22.2911L24.3355 21.9512C23.5957 23.1074 22.0176 23.8946 20.3901 23.8946C17.579 23.8946 15.9269 22.0004 15.9269 19.0237V12.9228C15.9269 12.094 16.6004 11.4222 17.4311 11.4222C18.2618 11.4222 18.9353 12.094 18.9353 12.9228V17.9659C18.9353 20.2784 19.8476 21.2132 21.5244 21.2132C23.4231 21.2132 24.3355 20.1062 24.3355 17.7937V12.9228Z" fill="#222222"/>
<path d="M31.8944 22.264C31.8168 23.0089 31.1876 23.5748 30.4369 23.5748C29.6276 23.5748 28.9715 22.9203 28.9715 22.1129V6.7727C28.9715 5.94392 29.6449 5.27207 30.4757 5.27207C31.3064 5.27207 31.9798 5.94392 31.9798 6.7727V13.1934C32.7689 11.8404 34.3964 11.0286 36.2458 11.0286C39.7226 11.0286 41.8432 13.7346 41.8432 17.5723C41.8432 21.3116 39.55 23.8946 36.0485 23.8946C34.2238 23.8946 32.6703 23.0828 31.9552 21.6806L31.8944 22.264ZM32.0045 17.4493C32.0045 19.6387 33.3607 21.1394 35.432 21.1394C37.5527 21.1394 38.8102 19.6141 38.8102 17.4493C38.8102 15.2845 37.5527 13.7346 35.432 13.7346C33.3607 13.7346 32.0045 15.2599 32.0045 17.4493Z" fill="#222222"/>
<path d="M65.4269 28.7493C65.4269 29.5713 64.759 30.2376 63.935 30.2376C63.1111 30.2376 62.4432 29.5713 62.4432 28.7493L62.4429 14.6978C62.4429 13.8758 63.1108 13.2095 63.9348 13.2095C64.7587 13.2095 65.4266 13.8758 65.4266 14.6978L65.4269 28.7493Z" fill="#222222"/>
<path d="M70.7279 30.5575C68.1388 30.5575 66.5606 29.0568 66.5606 26.769C66.5606 24.5303 68.1881 23.1281 71.0731 22.9067L74.4521 22.6562C74.6046 22.6448 74.7226 22.5181 74.7226 22.3655C74.7226 20.7173 73.7363 20.053 72.2074 20.053C71.09 20.053 70.2852 20.3454 69.8421 20.881C69.3913 21.4259 68.8716 22.0703 68.1634 22.0703C67.4553 22.0703 66.8566 21.4838 67.0649 20.8086C67.6532 18.9014 69.6139 17.716 72.3554 17.716C75.635 17.716 77.657 19.4872 77.657 22.8575V28.8407C77.657 29.6122 77.03 30.2376 76.2567 30.2376C75.5496 30.2376 74.9535 29.7117 74.867 29.0116L74.7966 28.4418C74.2787 29.6964 72.6266 30.5575 70.7279 30.5575ZM71.7143 28.2942C73.5636 28.2942 74.7473 27.1872 74.7473 25.3175C74.7473 24.9726 74.4528 24.7007 74.1081 24.7275L72.2074 24.8747C70.3334 25.0469 69.6183 25.6619 69.6183 26.646C69.6183 27.753 70.358 28.2942 71.7143 28.2942Z" fill="#222222"/>
<path d="M82.9244 30.2376C82.051 30.2376 81.2771 29.6761 81.008 28.8472L78.1415 20.0179C77.8317 19.0635 78.545 18.085 79.5506 18.085C80.2014 18.085 80.7759 18.5088 80.9667 19.1295L82.2485 23.3003C82.5197 24.2597 82.7663 25.3175 82.9882 26.4492C83.2102 25.2683 83.4321 24.5057 83.8266 23.3003L85.0456 19.5089C85.3184 18.6605 86.1092 18.085 87.0023 18.085H87.0486C87.9482 18.085 88.7432 18.6688 89.0106 19.5257L90.1885 23.3003C90.3365 23.7923 90.8296 25.6127 90.9776 26.4246C91.1749 25.5143 91.5694 24.0629 91.7913 23.3003L93.0936 19.1269C93.287 18.5072 93.862 18.085 94.5126 18.085C95.5342 18.085 96.2512 19.0895 95.917 20.0527L92.8367 28.9304C92.5652 29.7129 91.8265 30.2376 90.9965 30.2376C90.1482 30.2376 89.3976 29.6898 89.1407 28.8833L87.8953 24.9731C87.4021 23.3741 87.1309 22.2179 87.0322 21.6029C86.9089 22.1687 86.687 23.0297 86.0705 25.0223L84.8426 28.8418C84.5751 29.6735 83.7999 30.2376 82.9244 30.2376Z" fill="#222222"/>
</svg>
